<svg xmlns="http://www.w3.org/2000/svg" version="1.1" xmlns:xlink="http://www.w3.org/1999/xlink" viewBox="0 0 200 200"><rect width="200" height="200" fill="url('#gradient')"></rect><defs><linearGradient id="gradient" gradientTransform="rotate(57 0.5 0.5)"><stop offset="0%" stop-color="#0e5278"></stop><stop offset="100%" stop-color="#000000"></stop></linearGradient></defs><g><g fill="#e8f4ff" transform="matrix(7.387575150300601,0,0,7.387575150300601,2.0758524298906735,152.52503517147056)" stroke="#000000" stroke-width="0.15"><path d="M6.85 0L1.07 0L1.07-14.22L6.18-14.22Q8.93-14.22 10.36-13.21Q11.79-12.21 11.79-10.29L11.79-10.29Q11.79-9.19 11.28-8.41Q10.77-7.63 9.79-7.26L9.79-7.26Q10.90-6.96 11.49-6.16Q12.09-5.36 12.09-4.21L12.09-4.21Q12.09-2.12 10.77-1.07Q9.44-0.02 6.85 0L6.85 0ZM6.90-6.04L4.50-6.04L4.50-2.64L6.75-2.64Q7.68-2.64 8.17-3.06Q8.67-3.49 8.67-4.26L8.67-4.26Q8.67-6.04 6.90-6.04L6.90-6.04ZM4.50-11.57L4.50-8.29L6.29-8.29Q7.41-8.30 7.89-8.70Q8.37-9.10 8.37-9.88L8.37-9.88Q8.37-10.78 7.85-11.18Q7.33-11.57 6.18-11.57L6.18-11.57L4.50-11.57ZM21.77 0L19.26-5.02L17.40-5.02L17.40 0L13.97 0L13.97-14.22L19.57-14.22Q22.10-14.22 23.53-13.10Q24.95-11.97 24.95-9.92L24.95-9.92Q24.95-8.44 24.35-7.46Q23.75-6.48 22.47-5.88L22.47-5.88L25.44-0.15L25.44 0L21.77 0ZM17.40-11.57L17.40-7.67L19.57-7.67Q20.55-7.67 21.04-8.18Q21.53-8.69 21.53-9.61Q21.53-10.53 21.04-11.05Q20.54-11.57 19.57-11.57L19.57-11.57L17.40-11.57Z"></path></g></g></svg>